<svg xmlns="http://www.w3.org/2000/svg" xmlns:xlink="http://www.w3.org/1999/xlink" viewBox="0 0 202.65 174.81"><defs><style>.a{stroke:#162d1a;fill:url(#a);}.a,.b{stroke-miterlimit:10;}.b{stroke:#1d1d1b;fill:url(#b);}</style><linearGradient id="a" x1="1.23" y1="74.19" x2="201.02" y2="74.19" gradientUnits="userSpaceOnUse"><stop offset="0" stop-color="#5e1641"/><stop offset="1" stop-color="#eb5f3e"/></linearGradient><linearGradient id="b" x1="0.76" y1="100.62" x2="202.14" y2="100.62" xlink:href="#a"/></defs><title>zak-logo</title><polygon class="a" points="201.02 0.5 187.05 18.35 186.93 18.5 180.5 26.71 180.33 26.93 166.53 44.56 166.24 44.93 100.59 128.8 99.75 129.87 157.55 129.87 157.7 111.03 175.7 111.17 175.55 129.87 175.4 147.87 59.62 147.87 60.57 146.65 73.7 129.87 74.54 128.8 140.2 44.93 140.49 44.56 154.29 26.93 154.46 26.71 160.88 18.5 19.59 18.5 19.52 26.6 19.52 26.93 19.38 44.6 19.38 44.93 19.23 62.27 1.23 62.13 1.37 44.93 1.37 44.6 1.52 26.93 1.52 26.6 1.59 18.5 1.59 18.17 1.74 0.5 201.02 0.5"/><polygon class="b" points="202.14 111.39 201.99 129.87 201.84 147.87 201.77 156.31 201.62 174.31 0.97 174.31 0.76 174.2 1.8 172.87 14.76 156.31 15.77 155.02 21.37 147.87 22.33 146.65 35.46 129.87 36.3 128.8 87.98 62.77 93.82 55.3 101.94 44.93 45.82 44.93 45.67 62.49 27.67 62.34 27.82 44.93 27.82 44.6 27.96 26.93 142.07 26.93 128.27 44.56 127.98 44.93 62.33 128.8 61.49 129.87 48.36 146.65 47.41 147.87 41.82 155.02 40.81 156.31 183.77 156.31 183.84 147.87 183.99 129.87 184.14 111.24 202.14 111.39"/></svg>